# xmcd
#
# Track frame offsets: 
#        182
#        13677
#        26310
#        37782
#        50107
#        60270
#        72967
#        85512
#        98187
#        109970
#        121592
#        133857
#        147175
#        155787
#        167005
#        181087
#        193967
#        203012
#        214335
#        239812
#        261027
#        273310
#        284060
#        292747
#        310020
#        322435
#        333460
#
# Disc length: 4614 seconds
#
# Revision: 2
# Processed by: cddbd v1.5.2PL0 Copyright (c) Steve Scherf et al.
# Submitted via: ExactAudioCopy v1.3
#
DISCID=9512041b
DTITLE=Various Artist - Nuggets: Original Artyfacts from the First Ps
DTITLE=ychedelic Era, 1965–1968 Disc 1
DYEAR=1998
DGENRE=Psychedelic Rock
TTITLE0=The Electric Prunes - I Had Too Much To Dream (Last Night)
TTITLE1=The Standells - Dirty Water
TTITLE2=The Strangeloves - Night Time
TTITLE3=The Knickerbockers - Lies
TTITLE4=The Vagrants - Respect
TTITLE5=Mouse and The Traps - A Public Execution
TTITLE6=The Blues Project - No Time Like The Right Time
TTITLE7=The Shadows Of Knight - Oh Yeah
TTITLE8=The Seeds - Pushin' Too Hard
TTITLE9=The Barbarians - Moulty
TTITLE10=The Remains - Don't Look Back
TTITLE11=The Magicians - An Invitation To Cry
TTITLE12=The Castaways - Liar, Liar
TTITLE13=The 13th Floor Elevators - You're Gonna Miss Me
TTITLE14=Count Five - Psychotic Reaction
TTITLE15=The Leaves - Hey Joe
TTITLE16=Michael and The Messengers - Romeo and Juliet
TTITLE17=The Cryan' Shames - Sugar And Spice
TTITLE18=The Amboy Dukes - Baby Please Don't Go
TTITLE19=Blues Magoos - Tobacco Road
TTITLE20=The Chocolate Watch Band - Let's Talk About Girls
TTITLE21=The Mojo Men - Sit Down, I Think I Love You
TTITLE22=The Third Rail - Run, Run, Run
TTITLE23=Sagittarius - My World Fell Down
TTITLE24=Nazz - Open My Eyes
TTITLE25=The Premiers - Farmer John
TTITLE26=The Magic Mushrooms - It's-A-Happening
EXTD=
EXTT0=
EXTT1=
EXTT2=
EXTT3=
EXTT4=
EXTT5=
EXTT6=
EXTT7=
EXTT8=
EXTT9=
EXTT10=
EXTT11=
EXTT12=
EXTT13=
EXTT14=
EXTT15=
EXTT16=
EXTT17=
EXTT18=
EXTT19=
EXTT20=
EXTT21=
EXTT22=
EXTT23=
EXTT24=
EXTT25=
EXTT26=
PLAYORDER=
